<?xml version="1.0" encoding="utf-8"?>
<!-- Generator: Adobe Illustrator 21.0.0, SVG Export Plug-In . SVG Version: 6.00 Build 0)  -->
<svg version="1.1" id="レイヤー_1" xmlns="http://www.w3.org/2000/svg" xmlns:xlink="http://www.w3.org/1999/xlink" x="0px"
	 y="0px" viewBox="0 0 272.9 29.6" style="enable-background:new 0 0 272.9 29.6;" xml:space="preserve">
<style type="text/css">
	.st0{fill:#828282;}
	.st1{fill:#009FB3;}
	.st2{fill:#4C4948;}
</style>
<title>atmophlogowhite</title>
<g id="レイヤー_2">
	<g id="design">
		<rect y="25.8" class="st0" width="32.7" height="3.8"/>
		<rect y="8.6" class="st0" width="20.7" height="3.8"/>
		<rect x="14.9" y="17.2" class="st0" width="17.9" height="3.8"/>
		<rect x="14.9" y="0" class="st1" width="17.9" height="3.8"/>
		<rect y="0" class="st1" width="9.4" height="3.8"/>
		<polygon class="st2" points="93.5,0.9 93.5,4.1 101.4,4.1 101.4,28.8 104.9,28.8 104.9,4.1 112.8,4.1 112.8,0.9 		"/>
		<polygon class="st2" points="153.2,0.9 144.7,19.8 136,0.9 132.6,0.9 132.6,28.8 136.1,28.8 136.1,9.1 143.1,24.3 143.2,24.5 
			146.1,24.5 153.1,9.1 153.1,28.8 156.6,28.8 156.6,0.9 		"/>
		<path class="st2" d="M193.2,3.6c-4-3.9-10.4-3.9-14.4,0c-2.6,2.7-2.6,5.3-2.6,11.2s0,8.6,2.6,11.2c4,3.9,10.4,3.9,14.4,0
			c2.6-2.7,2.6-5.4,2.6-11.2S195.9,6.2,193.2,3.6z M186.1,25.8c-1.7,0-3.3-0.7-4.5-1.9c-1.6-1.6-1.8-3.3-1.8-9.1s0.2-7.4,1.8-9.1
			c2.5-2.5,6.5-2.5,9,0c1.6,1.7,1.8,3.3,1.8,9.1s-0.2,7.4-1.8,9.1C189.4,25.1,187.7,25.8,186.1,25.8L186.1,25.8z"/>
		<path class="st2" d="M226.7,0.9h-10.5v27.9h3.5V17.5h6.9c5.2,0,8.7-3.4,8.7-8.3S232,0.9,226.7,0.9z M219.8,4.1h6.7
			c3.5,0,5.5,1.9,5.5,5.1s-2,5.1-5.5,5.1h-6.7L219.8,4.1z"/>
		<polygon class="st2" points="257,0.9 253.5,0.9 253.5,28.8 257,28.8 257,16.3 264.6,16.3 264.6,13.1 257,13.1 		"/>
		<rect x="269.4" y="0.9" class="st2" width="3.5" height="27.9"/>
		<polygon class="st2" points="69.5,0.9 66.6,0.9 56.4,28.8 60.1,28.8 62.3,22.6 68.1,22.6 68.1,19.5 63.4,19.5 68.1,6.3 76,28.8 
			79.7,28.8 		"/>
	</g>
</g>
</svg>
